<?xml version="1.0" encoding="UTF-8"?>
<svg id="Camada_1" xmlns="http://www.w3.org/2000/svg" version="1.1" viewBox="0 0 1000 328.5">
  <!-- Generator: Adobe Illustrator 29.0.1, SVG Export Plug-In . SVG Version: 2.1.0 Build 192)  -->
  <path d="M157.2,102.5h-50.9c-9.2-.4-18.3,1.2-26.8,4.8V0H0v328.5h79.3v-132.5c0-5.6,2.3-11.1,6.3-15s9.4-6.2,15.1-6.1h46.1c5.6,0,11.1,2.2,15.1,6.1,4,4,6.3,9.4,6.3,15v132.5h79.5v-142.9c0-60.1-40.1-83.1-90.3-83.1h-.2M920.5,102.5v132.5c0,11.7-9.5,21.2-21.2,21.2h-46.3c-5.6,0-11.1-2.2-15.1-6.1-4-4-6.3-9.4-6.3-15V102.5h-79.3v139.1c0,57,36,86.9,90.5,86.9h77.7c49.3,0,79.5-35.3,79.5-86.4V102.5h-79.5M472.5,235c0,5.6-2.3,11.1-6.3,15-4,4-9.4,6.2-15.1,6.1h-46.1c-5.6,0-11.1-2.2-15.1-6.1-4-4-6.3-9.4-6.3-15V102.5h-79.3v139.1c0,57,36.5,86.9,89.8,86.9h77.7c49.3,0,79.5-35.3,79.5-86.4V102.5h-78.8v132.5M612.4,328.5h79.5V0h-79.5v328.5"/>
</svg>