<?xml version="1.0" encoding="UTF-8"?>
<svg xmlns="http://www.w3.org/2000/svg" version="1.1" xmlns:cc="http://creativecommons.org/ns#" xmlns:dc="http://purl.org/dc/elements/1.1/" xmlns:inkscape="http://www.inkscape.org/namespaces/inkscape" xmlns:rdf="http://www.w3.org/1999/02/22-rdf-syntax-ns#" xmlns:sodipodi="http://sodipodi.sourceforge.net/DTD/sodipodi-0.dtd" xmlns:svg="http://www.w3.org/2000/svg" viewBox="0 0 283.4 124.1">
  <!-- Generator: Adobe Illustrator 29.0.1, SVG Export Plug-In . SVG Version: 2.1.0 Build 192)  -->
  <defs>
    <style>
      .st0 {
        fill: none;
      }
    </style>
  </defs>
  <g id="svg8" inkscape:version="0.92.2 (5c3e80d, 2017-08-06)" sodipodi:docname="Looke logo.svg">
    <sodipodi:namedview id="base" bordercolor="#666666" borderopacity="1.0" fit-margin-bottom="0" fit-margin-left="0" fit-margin-right="0" fit-margin-top="0" inkscape:current-layer="layer1" inkscape:cx="247.72763" inkscape:cy="124.39626" inkscape:document-units="mm" inkscape:pageopacity="0.0" inkscape:pageshadow="2" inkscape:window-height="705" inkscape:window-maximized="1" inkscape:window-width="1366" inkscape:window-x="-8" inkscape:window-y="-8" inkscape:zoom="1.4" pagecolor="#ffffff" showgrid="false"/>
    <g id="layer1" inkscape:groupmode="layer" inkscape:label="Camada 1">
      <g id="g3729">
        <rect id="rect3715" class="st0" x="-2.4" y="5.4" width="312" height="123.7"/>
        <g id="text3717">
          <path id="path3731" d="M45.8.3C44,.1,42.1,0,40.1,0,19.6,0,0,14.7,0,31.9s6.7,16.3,17.5,16.3c-3.2-2.8-6.2-6.3-6.2-15.9S18.9,11.3,30.9,8v95c1.1-.1,2-.1,3.1-.1,17.4,0,29.8,21.2,44,21.2s14.9-6.5,14.9-13.9-.1-2.4-.4-3.6c-3.6,1.8-7,2.7-10.4,2.7-15.3,0-24.8-9.4-36.4-12V.3Z" inkscape:connector-curvature="0"/>
          <path id="path3733" d="M89.7,31.7c-20.2,0-26.3,21.7-26.3,37.5,0,23.2,13.2,31.5,25.2,31.5s23.1-13.4,23.1-35.5-.1-3.8-.1-5.5c8.2-1.3,17.1-5.3,20.7-11.1l-2-3.6c-4.5,4.6-11.1,8.1-18.5,8.1h-.8c-1.8-12-7-21.3-21.2-21.3ZM91,90.4c-6.1,0-13.1-4.2-13.1-21.7s4.1-29.6,15.3-29.6,7.6,2.2,9.7,8.4c-3.5.1-5.4,1.6-5.4,5.8s2.2,6.5,7.3,6.7c.1,1.1.1,2.2.1,3.2,0,17.1-4.5,27.1-13.9,27.1Z" inkscape:connector-curvature="0"/>
          <path id="path3735" d="M146.3,31.7c-20.2,0-26.3,21.7-26.3,37.5,0,23.2,13.2,31.5,25.2,31.5s23.1-13.4,23.1-35.5-.1-3.8-.1-5.5c8.2-1.3,17.1-5.3,20.7-11.1l-2-3.6c-4.5,4.6-11.1,8.1-18.5,8.1h-.8c-1.8-12-7-21.3-21.2-21.3h0ZM147.7,90.4c-6.1,0-13.1-4.2-13.1-21.7s4-29.6,15.3-29.6,7.6,2.2,9.7,8.4c-3.5.1-5.4,1.6-5.4,5.8s2.2,6.5,7.3,6.7c.1,1.1.1,2.2.1,3.2,0,17.1-4.5,27.1-13.9,27.1h0Z" inkscape:connector-curvature="0"/>
          <path id="path3737" d="M178.3,7.3v92.6h13.5v-28.6c2.7-7.7,6.3-10.4,11.1-10.4s8.5,2.4,8.5,11.9-.1,11.1-.1,12.6c0,8.4,4.3,15.4,15.3,15.4s14.6-1.8,18.8-25h-5c-2.2,10.3-5.4,14.7-10.1,14.7s-5.3-4.6-5.3-7,.4-8.1.4-11.7c0-8.8-2.3-21.1-18.4-21.1h-1.3l22.5-18.2h-13.1l-23.2,22V5.4l-13.5,1.9Z" inkscape:connector-curvature="0"/>
          <path id="path3739" d="M282.3,49.3c0-14.3-9-17.5-18-17.5-19.4,0-25.8,22.7-25.8,37.8,0,22.8,13.6,31.2,25.8,31.2s19-5.4,19-13.5-.1-2.2-.3-3.4c-3.4,4.9-8.8,6.6-14.6,6.6s-14.2-3.2-15.5-17.5c18.2-2,29.3-11.1,29.3-23.6ZM252.9,67.6c0-13.2,4.6-29.3,14-29.3s6.7,2.8,6.7,9.6c0,10.1-8.1,17.7-20.8,19.7Z" inkscape:connector-curvature="0"/>
        </g>
      </g>
    </g>
  </g>
</svg>