<?xml version="1.0" encoding="UTF-8"?>
<svg id="Camada_1" xmlns="http://www.w3.org/2000/svg" version="1.1" viewBox="0 0 32 32">
  <!-- Generator: Adobe Illustrator 29.0.1, SVG Export Plug-In . SVG Version: 2.1.0 Build 192)  -->
  <path d="M14.8,28.6c-2.3-.2-4.1-.7-5.8-1.5-1.2-.6-2-1.2-2.8-2-.6-.6-1-1.1-1-1.4,0-.2,0-.4.3-.4s.4.1.8.4c1.7,1.3,4.1,2.3,6.7,2.7,2.5.4,5,.4,7.5-.1.8-.2,1.6-.4,2.3-.6.6-.2.9-.3,1.5-.6.4-.2.5-.2.6-.2.1,0,.2,0,.2,0,.1.1.1.3,0,.5-.1.2-.3.4-.6.6-1.6,1.3-4.2,2.2-7,2.5-.5,0-2.1,0-2.6,0h0ZM25.3,27.1c-.2-.1-.1-.3.1-.7.3-.6.6-1.3.7-1.7,0-.4,0-.5-.4-.5-.4,0-1.2,0-1.8,0-.1,0-.3,0-.4,0-.2,0-.2,0-.3,0,0,0,0-.1,0-.2,0,0,0-.1,0-.2.1-.1.4-.3.7-.4.6-.3,1-.4,1.7-.4.8,0,1.5.2,1.7.5,0,.1,0,.1,0,.5,0,.3,0,.4,0,.6-.1.6-.4,1.2-.7,1.7-.2.3-.7.7-.9.8-.2.1-.3.1-.4,0h0ZM13.9,21.1c-.7-.1-1.2-.8-1.5-1.8-.2-.6-.2-1.6,0-2.2.2-.9.6-1.5,1.2-1.8.7-.3,1.5-.1,1.9.5,0,.1.1.2.2.2,0,0,0-.5,0-1.2,0-1.2,0-1.2,0-1.3,0,0,0,0,.7,0,.5,0,.6,0,.7,0,0,0,0,.6,0,4v3.3s0,0,0,0c0,0,0,0-.6,0s-.5,0-.5,0c0,0-.1-.1-.2-.5,0-.2,0-.3,0-.3s0,0,0,.2c-.1.2-.4.5-.7.7-.1,0-.3.1-.3.1-.2,0-.5,0-.7,0h0ZM15.1,19.9c.4-.2.7-.9.6-1.9,0-.9-.3-1.4-.8-1.5-.2,0-.2,0-.3,0-.4,0-.7.5-.8,1.2,0,.5,0,1,0,1.4.1.4.3.6.5.8.2,0,.4,0,.6,0h0ZM19.8,21.1c-.3,0-.5-.1-.7-.3-.6-.4-1.1-1.1-1.2-1.9,0-.4,0-1,0-1.4.1-.8.6-1.6,1.2-2,.3-.2.8-.4,1.2-.4s.6,0,.8.2c.5.2,1,.7,1.3,1.3.2.4.3.8.3,1.4,0,.4,0,.4,0,.5,0,0,0,0-1.6,0h-1.6c0,.3,0,.6.2.8.1.2.2.4.4.5.2,0,.5.1.7,0,.2,0,.4-.3.4-.4,0,0,0-.2,0-.2,0,0,0-.1.1-.1.1,0,1.1.2,1.2.3,0,0,0,.2,0,.5-.2.3-.4.6-.6.8-.4.3-.8.4-1.3.4-.3,0-.5,0-.6,0h0ZM21.2,17.6s0,0,0-.3c0-.5-.3-.8-.5-.9-.4-.2-.8,0-1,.6,0,.2-.2.6-.1.6,0,0,1.6,0,1.7,0ZM25.2,21.1c-.7-.2-1.3-.7-1.6-1.4-.1-.2-.3-.7-.3-1-.2-1.1.2-2.2.9-2.9.4-.3.7-.5,1.1-.6,1.5-.3,2.8.9,2.9,2.8,0,.8-.2,1.5-.5,2-.3.5-.8.8-1.3,1-.2,0-.8,0-1.1,0ZM26,19.9c.2-.1.4-.4.5-.8,0-.2,0-.3,0-.8,0-.5,0-.6,0-.8-.1-.6-.4-.9-.7-1-.5,0-.9.3-1,.9-.2.8,0,1.8.2,2.3,0,.1.3.3.4.3.1,0,.4,0,.6,0ZM5.9,21c0,0,0-.1-.2-.7,0-.3-.2-.6-.3-1-.1-.5-.3-1-.4-1.4-.2-.6-.3-1.2-.5-1.8,0-.2-.1-.4-.1-.5,0-.1,0-.1.8-.1s.6,0,.7,0c0,0,0,.2.3,1,.2,1,.3,1.3.4,1.7.1.6.3,1.3.3,1.4,0,0,0,0,0-.2,0-.2.1-.5.4-2,.4-1.6.4-1.9.5-1.9,0,0,.1,0,.7,0,.7,0,.8,0,.8.1,0,0,0,.4-.5,1.9-.2.7-.4,1.4-.6,2.1,0,.3-.2.6-.4,1.3,0,0,0,.2,0,.2,0,0-.2,0-.9,0s-.8,0-.9,0h0ZM10.1,21h0c0,0,0-2.8,0-2.8,0-2.6,0-2.7,0-2.8,0,0,.1,0,.6,0,.5,0,.6,0,.7,0h0v2.8c0,1.9,0,2.7,0,2.8,0,0,0,0,0,0,0,0-.3,0-.6,0-.5,0-.6,0-.7,0ZM10.5,14.9c-.2,0-.5-.3-.6-.5,0-.2,0-.4,0-.6,0-.2.2-.4.4-.5.2,0,.6-.1.8,0,.2,0,.3.2.4.4,0,.1,0,.2,0,.4,0,.3,0,.4-.2.6-.2.2-.3.2-.6.2-.1,0-.3,0-.3,0h0ZM4.1,13.5s0,0-.1,0c0,0,0-.2,0-3.6,0-2,0-3.6,0-3.6,0,0,.2,0,.6,0s.5,0,.5,0c0,0,0,0,.2.4,0,.2,0,.3,0,.3,0,0,0,0,0-.1,0-.2.4-.5.6-.6.3-.2.7-.3,1-.2.8.1,1.4.8,1.6,2,0,.3,0,1.3,0,1.7,0,.7-.4,1.3-.7,1.7-.3.4-.7.5-1.1.5-.3,0-.5,0-.8-.1-.2-.1-.5-.3-.6-.6,0,0-.1-.2-.1-.2,0,0,0,.5,0,1.2s0,1.2,0,1.2c0,.1-.2.1-.7.1-.3,0-.5,0-.6,0ZM6.6,10.7c.2,0,.4-.3.5-.5.1-.3.2-.6.2-1,0-.8-.1-1.4-.5-1.7,0,0-.3-.2-.5-.2-.6,0-1,.7-1,1.7,0,.7.1,1.3.4,1.5.2.2.5.3.8.2ZM25.8,11.9c-.9-.2-1.7-.9-1.9-1.9-.3-1.4,0-2.8.9-3.5.8-.7,2-.7,2.8,0,.3.3.5.6.7,1,.2.4.2.7.2,1.2,0,.2,0,.5,0,.5,0,.2,0,.2-1.7.2s-1.6,0-1.6,0c0,0,0,.5.2.7.1.3.3.5.5.6.5.1.9,0,1-.5,0-.3.1-.3.2-.3,0,0,.7.1,1.1.2.2,0,.2.1,0,.4-.1.3-.3.5-.5.7-.4.5-.9.7-1.6.7-.2,0-.4,0-.5,0h0ZM27.1,8.4c0-.3-.2-.8-.3-1-.1-.1-.3-.2-.5-.2-.3,0-.5.1-.7.4-.1.2-.2.5-.2.7h0c0,.1,1.8.1,1.8.1h0ZM9.5,11.7h0v-2.8c0-2.5,0-2.7,0-2.8,0,0,1,0,1.1,0,0,0,.1.1.2.5,0,.2,0,.3,0,.3,0,0,0,0,.1-.2.1-.2.4-.5.6-.6.3-.2.8-.2,1.1-.1.2,0,.3.1.3.3s-.2.8-.3,1.1c0,.2,0,.2-.4,0-.3-.1-.5-.2-.6-.2-.4,0-.7.2-.8.7,0,.1,0,.4,0,1.9,0,1.4,0,1.8,0,1.8,0,0-.2,0-.6,0-.6,0-.6,0-.7,0h0ZM13.5,11.8s0,0,0,0c0,0,0-4.9,0-5.4,0-.1,0-.2.8-.2s.7,0,.7.2c0,0,0,1.3,0,2.7,0,2.6,0,2.7,0,2.7s0,0-.7,0c-.3,0-.6,0-.7,0h0ZM15.9,11.8s0,0,0,0c0,0,0-1.1,0-2.7s0-2.7,0-2.7c0,0,0,0,.6,0,.3,0,.5,0,.6,0,0,0,0,0,.2.5,0,.1,0,.2,0,.3,0,0,0,0,.1-.2.2-.3.4-.6.8-.7.1,0,.2,0,.5,0,.3,0,.5,0,.7.2.2,0,.5.4.6.6,0,0,.1.2.1.2s0,0,.1-.1c.2-.4.6-.7,1-.8.3,0,.7,0,1,0,.5.2.9.6,1.1,1.4,0,.2,0,.3,0,2.2,0,1.7,0,2,0,2.1,0,0,0,0-.7,0-.6,0-.6,0-.7,0h0c0,0,0-1.9,0-1.9,0-1.8,0-1.8,0-2-.1-.4-.3-.5-.7-.5-.3,0-.6.2-.7.5,0,.3-.1.6-.1,2.2,0,1.6,0,1.6,0,1.6s0,0-.6,0-.7,0-.7-.1c0,0,0-.6,0-1.7,0-1.7,0-1.9,0-2.2-.1-.4-.6-.6-1-.3-.2.1-.4.4-.4.9,0,.1,0,1,0,1.8v1.5s0,0,0,0c0,0,0,0-.6,0-.3,0-.6,0-.6,0h0ZM13.9,5.7c-.2,0-.4-.3-.5-.5,0-.2,0-.5,0-.7,0-.2.2-.3.4-.4.2,0,.5,0,.7,0,.2,0,.4.3.4.5,0,.2,0,.5,0,.7,0,.2-.3.3-.5.4-.1,0-.4,0-.5,0h0Z"/>
</svg>